<svg viewBox="0 0 512 512" xmlns="http://www.w3.org/2000/svg"><circle cx="256" cy="256" r="256" fill="#0B0907"/><g transform="translate(56 56) scale(0.78125)"><line x1="256.00" y1="5.00" x2="256.00" y2="5.00" stroke="#b2471e" stroke-width="5" stroke-opacity="0.85"/><line x1="277.88" y1="5.96" x2="320.96" y2="13.55" stroke="#b2471e" stroke-width="5" stroke-opacity="0.85"/><line x1="299.59" y1="8.81" x2="381.50" y2="38.63" stroke="#b2471e" stroke-width="5" stroke-opacity="0.85"/><line x1="320.96" y1="13.55" x2="433.48" y2="78.52" stroke="#b54e1f" stroke-width="5" stroke-opacity="0.85"/><line x1="341.85" y1="20.14" x2="473.37" y2="130.50" stroke="#bf6621" stroke-width="5" stroke-opacity="0.85"/><line x1="362.08" y1="28.52" x2="498.45" y2="191.04" stroke="#cc8324" stroke-width="5" stroke-opacity="0.85"/><line x1="381.50" y1="38.63" x2="507.00" y2="256.00" stroke="#d9a228" stroke-width="5" stroke-opacity="0.85"/><line x1="399.97" y1="50.39" x2="498.45" y2="320.96" stroke="#e3be6c" stroke-width="5" stroke-opacity="0.85"/><line x1="417.34" y1="63.72" x2="473.37" y2="381.50" stroke="#ecd9ae" stroke-width="5" stroke-opacity="0.85"/><line x1="433.48" y1="78.52" x2="433.48" y2="433.48" stroke="#f4f1ea" stroke-width="5" stroke-opacity="0.85"/><line x1="448.28" y1="94.66" x2="381.50" y2="473.37" stroke="#edddb8" stroke-width="5" stroke-opacity="0.85"/><line x1="461.61" y1="112.03" x2="320.96" y2="498.45" stroke="#e8cd92" stroke-width="5" stroke-opacity="0.85"/><line x1="473.37" y1="130.50" x2="256.00" y2="507.00" stroke="#e4c47a" stroke-width="5" stroke-opacity="0.85"/><line x1="483.48" y1="149.92" x2="191.04" y2="498.45" stroke="#e3c070" stroke-width="5" stroke-opacity="0.85"/><line x1="491.86" y1="170.15" x2="130.50" y2="473.37" stroke="#e4c174" stroke-width="5" stroke-opacity="0.85"/><line x1="498.45" y1="191.04" x2="78.52" y2="433.48" stroke="#e6c885" stroke-width="5" stroke-opacity="0.85"/><line x1="503.19" y1="212.41" x2="38.63" y2="381.50" stroke="#ead3a1" stroke-width="5" stroke-opacity="0.85"/><line x1="506.04" y1="234.12" x2="13.55" y2="320.96" stroke="#efe1c4" stroke-width="5" stroke-opacity="0.85"/><line x1="507.00" y1="256.00" x2="5.00" y2="256.00" stroke="#f4f1ea" stroke-width="5" stroke-opacity="0.85"/><line x1="506.04" y1="277.88" x2="13.55" y2="191.04" stroke="#efe1c4" stroke-width="5" stroke-opacity="0.85"/><line x1="503.19" y1="299.59" x2="38.63" y2="130.50" stroke="#ead3a1" stroke-width="5" stroke-opacity="0.85"/><line x1="498.45" y1="320.96" x2="78.52" y2="78.52" stroke="#e6c885" stroke-width="5" stroke-opacity="0.85"/><line x1="491.86" y1="341.85" x2="130.50" y2="38.63" stroke="#e4c174" stroke-width="5" stroke-opacity="0.85"/><line x1="483.48" y1="362.08" x2="191.04" y2="13.55" stroke="#e3c070" stroke-width="5" stroke-opacity="0.85"/><line x1="473.37" y1="381.50" x2="256.00" y2="5.00" stroke="#e4c47a" stroke-width="5" stroke-opacity="0.85"/><line x1="461.61" y1="399.97" x2="320.96" y2="13.55" stroke="#e8cd92" stroke-width="5" stroke-opacity="0.85"/><line x1="448.28" y1="417.34" x2="381.50" y2="38.63" stroke="#edddb8" stroke-width="5" stroke-opacity="0.85"/><line x1="433.48" y1="433.48" x2="433.48" y2="78.52" stroke="#f4f1ea" stroke-width="5" stroke-opacity="0.85"/><line x1="417.34" y1="448.28" x2="473.37" y2="130.50" stroke="#ecd9ae" stroke-width="5" stroke-opacity="0.85"/><line x1="399.97" y1="461.61" x2="498.45" y2="191.04" stroke="#e3be6c" stroke-width="5" stroke-opacity="0.85"/><line x1="381.50" y1="473.37" x2="507.00" y2="256.00" stroke="#d9a228" stroke-width="5" stroke-opacity="0.85"/><line x1="362.08" y1="483.48" x2="498.45" y2="320.96" stroke="#cc8324" stroke-width="5" stroke-opacity="0.85"/><line x1="341.85" y1="491.86" x2="473.37" y2="381.50" stroke="#bf6621" stroke-width="5" stroke-opacity="0.85"/><line x1="320.96" y1="498.45" x2="433.48" y2="433.48" stroke="#b54e1f" stroke-width="5" stroke-opacity="0.85"/><line x1="299.59" y1="503.19" x2="381.50" y2="473.37" stroke="#b2471e" stroke-width="5" stroke-opacity="0.85"/><line x1="277.88" y1="506.04" x2="320.96" y2="498.45" stroke="#b2471e" stroke-width="5" stroke-opacity="0.85"/><line x1="256.00" y1="507.00" x2="256.00" y2="507.00" stroke="#b2471e" stroke-width="5" stroke-opacity="0.85"/><line x1="234.12" y1="506.04" x2="191.04" y2="498.45" stroke="#b2471e" stroke-width="5" stroke-opacity="0.85"/><line x1="212.41" y1="503.19" x2="130.50" y2="473.37" stroke="#b2471e" stroke-width="5" stroke-opacity="0.85"/><line x1="191.04" y1="498.45" x2="78.52" y2="433.48" stroke="#b54e1f" stroke-width="5" stroke-opacity="0.85"/><line x1="170.15" y1="491.86" x2="38.63" y2="381.50" stroke="#bf6621" stroke-width="5" stroke-opacity="0.85"/><line x1="149.92" y1="483.48" x2="13.55" y2="320.96" stroke="#cc8324" stroke-width="5" stroke-opacity="0.85"/><line x1="130.50" y1="473.37" x2="5.00" y2="256.00" stroke="#d9a228" stroke-width="5" stroke-opacity="0.85"/><line x1="112.03" y1="461.61" x2="13.55" y2="191.04" stroke="#e3be6c" stroke-width="5" stroke-opacity="0.85"/><line x1="94.66" y1="448.28" x2="38.63" y2="130.50" stroke="#ecd9ae" stroke-width="5" stroke-opacity="0.85"/><line x1="78.52" y1="433.48" x2="78.52" y2="78.52" stroke="#f4f1ea" stroke-width="5" stroke-opacity="0.85"/><line x1="63.72" y1="417.34" x2="130.50" y2="38.63" stroke="#edddb8" stroke-width="5" stroke-opacity="0.85"/><line x1="50.39" y1="399.97" x2="191.04" y2="13.55" stroke="#e8cd92" stroke-width="5" stroke-opacity="0.85"/><line x1="38.63" y1="381.50" x2="256.00" y2="5.00" stroke="#e4c47a" stroke-width="5" stroke-opacity="0.85"/><line x1="28.52" y1="362.08" x2="320.96" y2="13.55" stroke="#e3c070" stroke-width="5" stroke-opacity="0.85"/><line x1="20.14" y1="341.85" x2="381.50" y2="38.63" stroke="#e4c174" stroke-width="5" stroke-opacity="0.85"/><line x1="13.55" y1="320.96" x2="433.48" y2="78.52" stroke="#e6c885" stroke-width="5" stroke-opacity="0.85"/><line x1="8.81" y1="299.59" x2="473.37" y2="130.50" stroke="#ead3a1" stroke-width="5" stroke-opacity="0.85"/><line x1="5.96" y1="277.88" x2="498.45" y2="191.04" stroke="#efe1c4" stroke-width="5" stroke-opacity="0.85"/><line x1="5.00" y1="256.00" x2="507.00" y2="256.00" stroke="#f4f1ea" stroke-width="5" stroke-opacity="0.85"/><line x1="5.96" y1="234.12" x2="498.45" y2="320.96" stroke="#efe1c4" stroke-width="5" stroke-opacity="0.85"/><line x1="8.81" y1="212.41" x2="473.37" y2="381.50" stroke="#ead3a1" stroke-width="5" stroke-opacity="0.85"/><line x1="13.55" y1="191.04" x2="433.48" y2="433.48" stroke="#e6c885" stroke-width="5" stroke-opacity="0.85"/><line x1="20.14" y1="170.15" x2="381.50" y2="473.37" stroke="#e4c174" stroke-width="5" stroke-opacity="0.85"/><line x1="28.52" y1="149.92" x2="320.96" y2="498.45" stroke="#e3c070" stroke-width="5" stroke-opacity="0.85"/><line x1="38.63" y1="130.50" x2="256.00" y2="507.00" stroke="#e4c47a" stroke-width="5" stroke-opacity="0.85"/><line x1="50.39" y1="112.03" x2="191.04" y2="498.45" stroke="#e8cd92" stroke-width="5" stroke-opacity="0.85"/><line x1="63.72" y1="94.66" x2="130.50" y2="473.37" stroke="#edddb8" stroke-width="5" stroke-opacity="0.85"/><line x1="78.52" y1="78.52" x2="78.52" y2="433.48" stroke="#f4f1ea" stroke-width="5" stroke-opacity="0.85"/><line x1="94.66" y1="63.72" x2="38.63" y2="381.50" stroke="#ecd9ae" stroke-width="5" stroke-opacity="0.85"/><line x1="112.03" y1="50.39" x2="13.55" y2="320.96" stroke="#e3be6c" stroke-width="5" stroke-opacity="0.85"/><line x1="130.50" y1="38.63" x2="5.00" y2="256.00" stroke="#d9a228" stroke-width="5" stroke-opacity="0.85"/><line x1="149.92" y1="28.52" x2="13.55" y2="191.04" stroke="#cc8324" stroke-width="5" stroke-opacity="0.85"/><line x1="170.15" y1="20.14" x2="38.63" y2="130.50" stroke="#bf6621" stroke-width="5" stroke-opacity="0.85"/><line x1="191.04" y1="13.55" x2="78.52" y2="78.52" stroke="#b54e1f" stroke-width="5" stroke-opacity="0.85"/><line x1="212.41" y1="8.81" x2="130.50" y2="38.63" stroke="#b2471e" stroke-width="5" stroke-opacity="0.85"/><line x1="234.12" y1="5.96" x2="191.04" y2="13.55" stroke="#b2471e" stroke-width="5" stroke-opacity="0.85"/></g></svg>